<svg width="180" height="53" viewBox="0 0 180 53" fill="none" xmlns="http://www.w3.org/2000/svg">
<path d="M179 46.9726C179 49.7437 176.709 51.9884 173.874 51.9884H6.13243C3.2995 51.9884 1 49.7437 1 46.9726V6.97305C1 4.20322 3.2995 1.95068 6.13243 1.95068H173.873C176.709 1.95068 178.999 4.20322 178.999 6.97305L179 46.9726Z" fill="black"/>
<path d="M173.333 2.01135C176.42 2.01135 178.932 4.46023 178.932 7.46973V46.4697C178.932 49.4792 176.42 51.9281 173.333 51.9281H6.66667C3.58 51.9281 1.06833 49.4792 1.06833 46.4697V7.46973C1.06833 4.46023 3.58 2.01135 6.66667 2.01135H173.333ZM173.333 0.969729H6.66667C3.00167 0.969729 0 3.89636 0 7.46973V46.4697C0 50.0431 3.00167 52.9697 6.66667 52.9697H173.333C176.998 52.9697 180 50.0431 180 46.4697V7.46973C180 3.89636 176.998 0.969729 173.333 0.969729Z" fill="#A6A6A6"/>
<path d="M40.1705 26.6889C40.1318 22.499 43.6891 20.4606 43.8518 20.3657C41.8371 17.5018 38.7145 17.1105 37.6171 17.0793C34.9945 16.8102 32.4505 18.6094 31.1145 18.6094C29.7518 18.6094 27.6945 17.1053 25.4771 17.1495C22.6238 17.1924 19.9545 18.8031 18.4905 21.3043C15.4691 26.4042 17.7225 33.8987 20.6171 38.021C22.0651 40.0399 23.7571 42.2941 25.9718 42.2148C28.1385 42.1277 28.9478 40.868 31.5625 40.868C34.1531 40.868 34.9131 42.2148 37.1718 42.1641C39.4971 42.1277 40.9611 40.1361 42.3585 38.099C44.0318 35.785 44.7038 33.5061 44.7305 33.3891C44.6758 33.3709 40.2145 31.7108 40.1705 26.6889Z" fill="white"/>
<path d="M35.9038 14.3675C37.0691 12.9466 37.8665 11.0135 37.6451 9.05176C35.9585 9.12456 33.8491 10.1893 32.6345 11.579C31.5598 12.8036 30.5998 14.8108 30.8478 16.6984C32.7425 16.8362 34.6878 15.7663 35.9038 14.3675Z" fill="white"/>
<path d="M71.5269 41.9249H68.4989L66.8402 36.8432H61.0749L59.4949 41.9249H56.5469L62.2589 24.6245H65.7869L71.5269 41.9249ZM66.3402 34.7112L64.8402 30.1937C64.6815 29.7322 64.3842 28.6454 63.9455 26.9346H63.8922C63.7175 27.6704 63.4362 28.7572 63.0495 30.1937L61.5762 34.7112H66.3402Z" fill="white"/>
<path d="M86.2164 35.5344C86.2164 37.656 85.6284 39.333 84.4524 40.5641C83.399 41.66 82.091 42.2073 80.5297 42.2073C78.8444 42.2073 77.6337 41.6171 76.8964 40.4367H76.843V47.0082H74.0004V33.5571C74.0004 32.2233 73.9644 30.8544 73.895 29.4504H76.395L76.5537 31.4277H76.607C77.555 29.9379 78.9937 29.1943 80.9244 29.1943C82.4337 29.1943 83.6937 29.7754 84.7017 30.9389C85.7124 32.1037 86.2164 33.6351 86.2164 35.5344ZM83.3204 35.6358C83.3204 34.4216 83.0404 33.4206 82.4777 32.6328C81.863 31.8112 81.0377 31.4004 80.003 31.4004C79.3017 31.4004 78.6644 31.6292 78.095 32.0803C77.5243 32.5353 77.151 33.1294 76.9763 33.8652C76.8883 34.2084 76.8444 34.4892 76.8444 34.7102V36.7902C76.8444 37.6976 77.1297 38.4633 77.7004 39.0886C78.271 39.7139 79.0124 40.0259 79.9244 40.0259C80.995 40.0259 81.8284 39.6229 82.4244 38.8195C83.0217 38.0148 83.3204 36.954 83.3204 35.6358Z" fill="white"/>
<path d="M100.932 35.5344C100.932 37.656 100.344 39.333 99.167 40.5641C98.115 41.66 96.807 42.2073 95.2456 42.2073C93.5603 42.2073 92.3496 41.6171 91.6136 40.4367H91.5603V47.0082H88.7176V33.5571C88.7176 32.2233 88.6816 30.8544 88.6123 29.4504H91.1123L91.271 31.4277H91.3243C92.271 29.9379 93.7096 29.1943 95.6416 29.1943C97.1496 29.1943 98.4096 29.7754 99.4203 30.9389C100.427 32.1037 100.932 33.6351 100.932 35.5344ZM98.0363 35.6358C98.0363 34.4216 97.755 33.4206 97.1923 32.6328C96.5776 31.8112 95.755 31.4004 94.719 31.4004C94.0163 31.4004 93.3803 31.6292 92.8096 32.0803C92.239 32.5353 91.867 33.1294 91.6923 33.8652C91.6056 34.2084 91.5603 34.4892 91.5603 34.7102V36.7902C91.5603 37.6976 91.8456 38.4633 92.4136 39.0886C92.9843 39.7126 93.7256 40.0259 94.6403 40.0259C95.711 40.0259 96.5443 39.6229 97.1403 38.8195C97.7376 38.0148 98.0363 36.954 98.0363 35.6358Z" fill="white"/>
<path d="M117.385 37.0734C117.385 38.545 116.861 39.7423 115.809 40.6666C114.653 41.6767 113.044 42.1811 110.976 42.1811C109.067 42.1811 107.536 41.8223 106.377 41.1034L107.036 38.7933C108.284 39.5291 109.653 39.8983 111.145 39.8983C112.216 39.8983 113.049 39.6617 113.648 39.1911C114.244 38.7205 114.541 38.0887 114.541 37.3009C114.541 36.5989 114.296 36.0074 113.804 35.5277C113.315 35.048 112.497 34.6021 111.356 34.19C108.249 33.0603 106.697 31.4054 106.697 29.2292C106.697 27.807 107.241 26.6409 108.331 25.7335C109.416 24.8248 110.864 24.3711 112.675 24.3711C114.289 24.3711 115.631 24.6454 116.701 25.1927L115.991 27.4521C114.991 26.9217 113.86 26.6565 112.595 26.6565C111.595 26.6565 110.813 26.897 110.253 27.3754C109.78 27.8031 109.543 28.3244 109.543 28.9419C109.543 29.6257 109.813 30.1912 110.357 30.6358C110.831 31.0466 111.691 31.4912 112.939 31.9709C114.465 32.5702 115.587 33.2709 116.308 34.0743C117.027 34.8751 117.385 35.8774 117.385 37.0734Z" fill="white"/>
<path d="M126.784 31.5301H123.651V37.5868C123.651 39.1273 124.203 39.8969 125.31 39.8969C125.818 39.8969 126.239 39.854 126.572 39.7682L126.651 41.8729C126.091 42.077 125.354 42.1797 124.44 42.1797C123.318 42.1797 122.44 41.8456 121.807 41.1787C121.176 40.5105 120.859 39.3899 120.859 37.8156V31.5275H118.992V29.4475H120.859V27.1634L123.651 26.3418V29.4475H126.784V31.5301Z" fill="white"/>
<path d="M140.922 35.5848C140.922 37.5023 140.359 39.0766 139.236 40.3077C138.059 41.5752 136.496 42.207 134.548 42.207C132.671 42.207 131.176 41.5999 130.062 40.3857C128.947 39.1715 128.39 37.6388 128.39 35.7915C128.39 33.8584 128.963 32.275 130.114 31.0439C131.262 29.8115 132.811 29.1953 134.759 29.1953C136.636 29.1953 138.147 29.8024 139.287 31.0179C140.378 32.197 140.922 33.7193 140.922 35.5848ZM137.972 35.6745C137.972 34.524 137.72 33.5373 137.21 32.7144C136.614 31.7186 135.762 31.222 134.658 31.222C133.515 31.222 132.647 31.7199 132.051 32.7144C131.54 33.5386 131.288 34.5409 131.288 35.7265C131.288 36.877 131.54 37.8637 132.051 38.6853C132.666 39.6811 133.524 40.1777 134.632 40.1777C135.718 40.1777 136.57 39.6707 137.184 38.6593C137.708 37.8208 137.972 36.8237 137.972 35.6745Z" fill="white"/>
<path d="M150.162 31.8879C149.88 31.8372 149.58 31.8112 149.266 31.8112C148.266 31.8112 147.492 32.1791 146.948 32.9162C146.475 33.5662 146.238 34.3878 146.238 35.3797V41.9252H143.396L143.423 33.379C143.423 31.9412 143.387 30.6321 143.316 29.4517H145.792L145.896 31.8385H145.975C146.275 31.0182 146.748 30.3578 147.396 29.8625C148.03 29.4166 148.714 29.1943 149.451 29.1943C149.714 29.1943 149.951 29.2125 150.162 29.245V31.8879Z" fill="white"/>
<path d="M162.875 35.0976C162.875 35.5942 162.842 36.0128 162.771 36.3547H154.243C154.276 37.5871 154.688 38.5296 155.48 39.1796C156.199 39.7607 157.128 40.0519 158.27 40.0519C159.532 40.0519 160.684 39.8556 161.72 39.4617L162.166 41.3857C160.955 41.9005 159.526 42.1566 157.876 42.1566C155.892 42.1566 154.335 41.5872 153.202 40.4497C152.071 39.3122 151.504 37.7847 151.504 35.8685C151.504 33.9874 152.031 32.4209 153.086 31.1716C154.19 29.8378 155.682 29.1709 157.559 29.1709C159.403 29.1709 160.799 29.8378 161.747 31.1716C162.498 32.2311 162.875 33.5415 162.875 35.0976ZM160.164 34.3787C160.183 33.5571 159.998 32.8473 159.612 32.248C159.12 31.4771 158.364 31.0923 157.347 31.0923C156.418 31.0923 155.662 31.468 155.084 32.222C154.611 32.8213 154.33 33.5402 154.243 34.3774H160.164V34.3787Z" fill="white"/>
<path d="M65.4002 13.9815C65.4002 15.5116 64.9295 16.6634 63.9895 17.4369C63.1189 18.1506 61.8815 18.5081 60.2789 18.5081C59.4842 18.5081 58.8042 18.4743 58.2349 18.4067V10.0464C58.9775 9.92943 59.7775 9.86963 60.6415 9.86963C62.1682 9.86963 63.3189 10.1933 64.0949 10.8407C64.9642 11.5726 65.4002 12.6191 65.4002 13.9815ZM63.9269 14.0192C63.9269 13.0273 63.6575 12.2668 63.1189 11.7364C62.5802 11.2073 61.7935 10.9421 60.7575 10.9421C60.3175 10.9421 59.9429 10.9707 59.6322 11.0305V17.3862C59.8042 17.4122 60.1189 17.4239 60.5762 17.4239C61.6455 17.4239 62.4709 17.134 63.0522 16.5542C63.6335 15.9744 63.9269 15.1294 63.9269 14.0192Z" fill="white"/>
<path d="M73.2122 15.3179C73.2122 16.2604 72.9362 17.0326 72.3842 17.6384C71.8055 18.2611 71.0388 18.5718 70.0815 18.5718C69.1588 18.5718 68.4242 18.2741 67.8762 17.6761C67.3295 17.0794 67.0562 16.3267 67.0562 15.4193C67.0562 14.4703 67.3375 13.6916 67.9028 13.0871C68.4682 12.4826 69.2282 12.1797 70.1855 12.1797C71.1082 12.1797 71.8495 12.4774 72.4108 13.0741C72.9442 13.6539 73.2122 14.4027 73.2122 15.3179ZM71.7628 15.3621C71.7628 14.7966 71.6375 14.3117 71.3882 13.9074C71.0948 13.4186 70.6775 13.1742 70.1348 13.1742C69.5735 13.1742 69.1468 13.4186 68.8535 13.9074C68.6028 14.3117 68.4788 14.8044 68.4788 15.3868C68.4788 15.9523 68.6042 16.4372 68.8535 16.8415C69.1562 17.3303 69.5775 17.5747 70.1215 17.5747C70.6548 17.5747 71.0735 17.3264 71.3748 16.8285C71.6335 16.4164 71.7628 15.9276 71.7628 15.3621Z" fill="white"/>
<path d="M83.6867 12.3047L81.7201 18.4329H80.4401L79.6254 15.7718C79.4187 15.1075 79.2507 14.4471 79.1201 13.7919H79.0947C78.9734 14.4653 78.8054 15.1244 78.5894 15.7718L77.7241 18.4329H76.4294L74.5801 12.3047H76.0161L76.7267 15.218C76.8987 15.907 77.0401 16.5635 77.1534 17.1849H77.1787C77.2827 16.6727 77.4547 16.0201 77.6974 15.231L78.5894 12.306H79.7281L80.5827 15.1686C80.7894 15.8667 80.9574 16.5388 81.0867 17.1862H81.1254C81.2201 16.5557 81.3627 15.8836 81.5521 15.1686L82.3147 12.306H83.6867V12.3047Z" fill="white"/>
<path d="M90.9307 18.4327H89.5334V14.9227C89.5334 13.8411 89.112 13.3003 88.2667 13.3003C87.852 13.3003 87.5174 13.4485 87.2574 13.7462C87 14.0439 86.8694 14.3949 86.8694 14.7966V18.4314H85.472V14.0556C85.472 13.5174 85.4547 12.9337 85.4214 12.3019H86.6494L86.7147 13.26H86.7534C86.9161 12.9623 87.1587 12.7166 87.4774 12.5203C87.856 12.2915 88.28 12.1758 88.744 12.1758C89.3307 12.1758 89.8187 12.3604 90.2067 12.7309C90.6894 13.1846 90.9307 13.8619 90.9307 14.7615V18.4327Z" fill="white"/>
<path d="M94.7842 18.4328H93.3882V9.49268H94.7842V18.4328Z" fill="white"/>
<path d="M103.011 15.3179C103.011 16.2604 102.735 17.0326 102.183 17.6384C101.604 18.2611 100.836 18.5718 99.8803 18.5718C98.9563 18.5718 98.2216 18.2741 97.675 17.6761C97.1283 17.0794 96.855 16.3267 96.855 15.4193C96.855 14.4703 97.1363 13.6916 97.7017 13.0871C98.267 12.4826 99.027 12.1797 99.983 12.1797C100.907 12.1797 101.647 12.4774 102.21 13.0741C102.743 13.6539 103.011 14.4027 103.011 15.3179ZM101.56 15.3621C101.56 14.7966 101.435 14.3117 101.186 13.9074C100.894 13.4186 100.475 13.1742 99.9336 13.1742C99.371 13.1742 98.9443 13.4186 98.6523 13.9074C98.4016 14.3117 98.2776 14.8044 98.2776 15.3868C98.2776 15.9523 98.403 16.4372 98.6523 16.8415C98.955 17.3303 99.3763 17.5747 99.9203 17.5747C100.454 17.5747 100.871 17.3264 101.172 16.8285C101.432 16.4164 101.56 15.9276 101.56 15.3621Z" fill="white"/>
<path d="M109.774 18.4327H108.519L108.415 17.7268H108.376C107.947 18.2897 107.335 18.5718 106.54 18.5718C105.947 18.5718 105.467 18.3859 105.106 18.0167C104.778 17.6813 104.614 17.264 104.614 16.7687C104.614 16.0199 104.934 15.4492 105.578 15.054C106.22 14.6588 107.124 14.4651 108.288 14.4742V14.3598C108.288 13.5525 107.854 13.1495 106.983 13.1495C106.363 13.1495 105.816 13.3016 105.344 13.6032L105.06 12.7088C105.644 12.3565 106.366 12.1797 107.216 12.1797C108.859 12.1797 109.683 13.0247 109.683 14.7147V16.9715C109.683 17.5838 109.714 18.0713 109.774 18.4327ZM108.323 16.3267V15.3816C106.782 15.3556 106.011 15.7677 106.011 16.6166C106.011 16.9364 106.099 17.1756 106.279 17.3355C106.459 17.4954 106.688 17.5747 106.962 17.5747C107.268 17.5747 107.555 17.4798 107.816 17.2913C108.079 17.1015 108.24 16.861 108.3 16.5659C108.315 16.4996 108.323 16.419 108.323 16.3267Z" fill="white"/>
<path d="M117.713 18.4328H116.473L116.408 17.4487H116.369C115.973 18.1975 115.299 18.5719 114.351 18.5719C113.593 18.5719 112.963 18.282 112.463 17.7022C111.963 17.1224 111.713 16.3697 111.713 15.4454C111.713 14.4535 111.984 13.6501 112.528 13.0365C113.055 12.4645 113.7 12.1785 114.468 12.1785C115.312 12.1785 115.903 12.4554 116.239 13.0105H116.265V9.49268H117.664V16.7818C117.664 17.3785 117.68 17.9284 117.713 18.4328ZM116.265 15.8484V14.8266C116.265 14.6498 116.252 14.5068 116.227 14.3976C116.148 14.07 115.979 13.7944 115.721 13.5721C115.461 13.3498 115.148 13.238 114.787 13.238C114.265 13.238 113.857 13.4395 113.557 13.8438C113.26 14.2481 113.109 14.7642 113.109 15.3947C113.109 16.0005 113.252 16.4919 113.539 16.8702C113.841 17.2732 114.249 17.4747 114.76 17.4747C115.219 17.4747 115.585 17.307 115.864 16.9703C116.133 16.6596 116.265 16.2852 116.265 15.8484Z" fill="white"/>
<path d="M129.664 15.3179C129.664 16.2604 129.388 17.0326 128.836 17.6384C128.258 18.2611 127.492 18.5718 126.534 18.5718C125.612 18.5718 124.878 18.2741 124.328 17.6761C123.782 17.0794 123.508 16.3267 123.508 15.4193C123.508 14.4703 123.79 13.6916 124.355 13.0871C124.92 12.4826 125.68 12.1797 126.639 12.1797C127.56 12.1797 128.303 12.4774 128.863 13.0741C129.396 13.6539 129.664 14.4027 129.664 15.3179ZM128.216 15.3621C128.216 14.7966 128.091 14.3117 127.842 13.9074C127.547 13.4186 127.131 13.1742 126.587 13.1742C126.027 13.1742 125.6 13.4186 125.306 13.9074C125.055 14.3117 124.931 14.8044 124.931 15.3868C124.931 15.9523 125.056 16.4372 125.306 16.8415C125.608 17.3303 126.03 17.5747 126.574 17.5747C127.107 17.5747 127.527 17.3264 127.828 16.8285C128.086 16.4164 128.216 15.9276 128.216 15.3621Z" fill="white"/>
<path d="M137.177 18.4327H135.781V14.9227C135.781 13.8411 135.36 13.3003 134.513 13.3003C134.099 13.3003 133.764 13.4485 133.505 13.7462C133.247 14.0439 133.117 14.3949 133.117 14.7966V18.4314H131.719V14.0556C131.719 13.5174 131.703 12.9337 131.669 12.3019H132.896L132.961 13.26H133C133.164 12.9623 133.407 12.7166 133.724 12.5203C134.104 12.2915 134.527 12.1758 134.992 12.1758C135.577 12.1758 136.065 12.3604 136.453 12.7309C136.937 13.1846 137.177 13.8619 137.177 14.7615V18.4327Z" fill="white"/>
<path d="M146.581 13.325H145.043V16.302C145.043 17.0586 145.316 17.4369 145.857 17.4369C146.108 17.4369 146.316 17.4161 146.48 17.3732L146.516 18.4067C146.24 18.5081 145.877 18.5588 145.431 18.5588C144.879 18.5588 144.449 18.395 144.139 18.0674C143.827 17.7398 143.672 17.1886 143.672 16.4151V13.325H142.753V12.3045H143.672V11.1813L145.041 10.7783V12.3032H146.58V13.325H146.581Z" fill="white"/>
<path d="M153.979 18.4328H152.58V14.9488C152.58 13.8503 152.159 13.3004 151.315 13.3004C150.667 13.3004 150.224 13.6189 149.981 14.2559C149.94 14.3898 149.916 14.5536 149.916 14.746V18.4315H148.52V9.49268H149.916V13.186H149.943C150.383 12.5139 151.013 12.1785 151.831 12.1785C152.409 12.1785 152.888 12.3631 153.268 12.7336C153.741 13.1951 153.979 13.8815 153.979 14.7889V18.4328Z" fill="white"/>
<path d="M161.609 15.0787C161.609 15.3231 161.591 15.5285 161.557 15.6962H157.367C157.385 16.302 157.585 16.7635 157.973 17.0833C158.328 17.3693 158.785 17.5123 159.345 17.5123C159.965 17.5123 160.531 17.4161 161.04 17.2224L161.259 18.1688C160.663 18.421 159.961 18.5471 159.149 18.5471C158.176 18.5471 157.409 18.2676 156.855 17.7086C156.297 17.1496 156.021 16.3995 156.021 15.4583C156.021 14.534 156.279 13.7644 156.797 13.1508C157.339 12.4956 158.071 12.168 158.995 12.168C159.899 12.168 160.585 12.4956 161.049 13.1508C161.424 13.6708 161.609 14.3143 161.609 15.0787ZM160.276 14.7264C160.287 14.3221 160.195 13.9737 160.005 13.6799C159.763 13.3016 159.393 13.1118 158.893 13.1118C158.437 13.1118 158.065 13.2964 157.781 13.6669C157.549 13.962 157.412 14.3143 157.367 14.7264H160.276Z" fill="white"/>
</svg>
