<svg width="180" height="53" viewBox="0 0 180 53" fill="none" xmlns="http://www.w3.org/2000/svg">
<path d="M173.095 52.9697H6.6575C2.99754 52.9697 0 50.0431 0 46.4697V7.46973C0 3.89636 2.99754 0.969729 6.6575 0.969729H173.095C176.755 0.969729 179.753 3.89636 179.753 7.46973V46.4697C179.753 50.0431 176.755 52.9697 173.095 52.9697Z" fill="black"/>
<path d="M173.095 2.01135C176.177 2.01135 178.686 4.46023 178.686 7.46973V46.4697C178.686 49.4792 176.177 51.9281 173.095 51.9281H6.6575C3.57508 51.9281 1.06686 49.4792 1.06686 46.4697V7.46973C1.06686 4.46023 3.57508 2.01135 6.6575 2.01135H173.095ZM173.095 0.969729H6.6575C2.99754 0.969729 0 3.89636 0 7.46973V46.4697C0 50.0431 2.99754 52.9697 6.6575 52.9697H173.095C176.755 52.9697 179.753 50.0431 179.753 46.4697V7.46973C179.753 3.89636 176.755 0.969729 173.095 0.969729Z" fill="#A6A6A6"/>
<path d="M63.1366 14.2864C63.1366 15.3719 62.8037 16.2413 62.1479 16.8897C61.394 17.6583 60.412 18.045 59.2087 18.045C58.0586 18.045 57.0766 17.6518 56.271 16.8767C55.4638 16.0902 55.061 15.1249 55.061 13.9695C55.061 12.8142 55.4638 11.8489 56.271 11.0689C57.0766 10.2873 58.0586 9.89404 59.2087 9.89404C59.7812 9.89404 60.3271 10.0094 60.8481 10.2239C61.3674 10.44 61.7901 10.7325 62.0963 11.0933L61.4006 11.779C60.8664 11.1632 60.139 10.8593 59.2087 10.8593C58.3698 10.8593 57.6425 11.1453 57.025 11.7222C56.4142 12.3007 56.1079 13.0498 56.1079 13.9695C56.1079 14.8893 56.4142 15.6449 57.025 16.2234C57.6425 16.7938 58.3698 17.0863 59.2087 17.0863C60.0991 17.0863 60.8481 16.7938 61.4389 16.2169C61.8284 15.835 62.0498 15.3085 62.108 14.6358H59.2087V13.6965H63.0767C63.1233 13.8997 63.1366 14.0963 63.1366 14.2864Z" fill="white" stroke="white" stroke-width="0.16" stroke-miterlimit="10"/>
<path d="M69.2728 11.0299H65.6394V13.4999H68.9149V14.4391H65.6394V16.9091H69.2728V17.8663H64.6108V10.0728H69.2728V11.0299Z" fill="white" stroke="white" stroke-width="0.16" stroke-miterlimit="10"/>
<path d="M73.6039 17.8663H72.5753V11.0299H70.3467V10.0728H75.8341V11.0299H73.6039V17.8663Z" fill="white" stroke="white" stroke-width="0.16" stroke-miterlimit="10"/>
<path d="M79.8052 17.8663V10.0728H80.8321V17.8663H79.8052Z" fill="white" stroke="white" stroke-width="0.16" stroke-miterlimit="10"/>
<path d="M85.3841 17.8663H84.3639V11.0299H82.127V10.0728H87.621V11.0299H85.3841V17.8663Z" fill="white" stroke="white" stroke-width="0.16" stroke-miterlimit="10"/>
<path d="M98.0099 16.8637C97.2227 17.6518 96.2474 18.045 95.084 18.045C93.9139 18.045 92.9386 17.6518 92.1513 16.8637C91.3657 16.0772 90.9746 15.1119 90.9746 13.9695C90.9746 12.8272 91.3657 11.8619 92.1513 11.0754C92.9386 10.2873 93.9139 9.89404 95.084 9.89404C96.2407 9.89404 97.216 10.2873 98.0033 11.0819C98.7955 11.8749 99.1866 12.8337 99.1866 13.9695C99.1866 15.1119 98.7955 16.0772 98.0099 16.8637ZM92.9119 16.2104C93.5045 16.7938 94.2251 17.0863 95.084 17.0863C95.9361 17.0863 96.6634 16.7938 97.2493 16.2104C97.8402 15.627 98.1397 14.8779 98.1397 13.9695C98.1397 13.0612 97.8402 12.312 97.2493 11.7287C96.6634 11.1453 95.9361 10.8528 95.084 10.8528C94.2251 10.8528 93.5045 11.1453 92.9119 11.7287C92.3211 12.312 92.0215 13.0612 92.0215 13.9695C92.0215 14.8779 92.3211 15.627 92.9119 16.2104Z" fill="white" stroke="white" stroke-width="0.16" stroke-miterlimit="10"/>
<path d="M100.63 17.8663V10.0728H101.878L105.759 16.134H105.804L105.759 14.6358V10.0728H106.786V17.8663H105.715L101.65 11.506H101.605L101.65 13.0108V17.8663H100.63Z" fill="white" stroke="white" stroke-width="0.16" stroke-miterlimit="10"/>
<path d="M90.7215 29.248C87.5942 29.248 85.0394 31.5718 85.0394 34.7779C85.0394 37.958 87.5942 40.3061 90.7215 40.3061C93.8555 40.3061 96.4104 37.958 96.4104 34.7779C96.4104 31.5718 93.8555 29.248 90.7215 29.248ZM90.7215 38.1286C89.0056 38.1286 87.5293 36.7458 87.5293 34.7779C87.5293 32.784 89.0056 31.4255 90.7215 31.4255C92.4375 31.4255 93.9205 32.784 93.9205 34.7779C93.9205 36.7458 92.4375 38.1286 90.7215 38.1286ZM78.3236 29.248C75.1896 29.248 72.6414 31.5718 72.6414 34.7779C72.6414 37.958 75.1896 40.3061 78.3236 40.3061C81.4559 40.3061 84.0058 37.958 84.0058 34.7779C84.0058 31.5718 81.4559 29.248 78.3236 29.248ZM78.3236 38.1286C76.606 38.1286 75.1247 36.7458 75.1247 34.7779C75.1247 32.784 76.606 31.4255 78.3236 31.4255C80.0396 31.4255 81.5159 32.784 81.5159 34.7779C81.5159 36.7458 80.0396 38.1286 78.3236 38.1286ZM63.5706 30.9429V33.2926H69.3177C69.1496 34.6056 68.7002 35.5709 68.0111 36.2436C67.1723 37.0561 65.8657 37.958 63.5706 37.958C60.0338 37.958 57.2643 35.1711 57.2643 31.718C57.2643 28.2649 60.0338 25.478 63.5706 25.478C65.4829 25.478 66.8744 26.2076 67.9013 27.1534L69.5973 25.4975C68.1609 24.1585 66.2502 23.1299 63.5706 23.1299C58.7206 23.1299 54.6445 26.9828 54.6445 31.718C54.6445 36.4533 58.7206 40.3061 63.5706 40.3061C66.192 40.3061 68.1609 39.4676 69.7088 37.8946C71.2949 36.346 71.7893 34.1685 71.7893 32.4103C71.7893 31.8643 71.7427 31.3621 71.6594 30.9429H63.5706ZM123.898 32.7645C123.43 31.5279 121.987 29.248 119.048 29.248C116.135 29.248 113.71 31.4889 113.71 34.7779C113.71 37.8751 116.11 40.3061 119.327 40.3061C121.929 40.3061 123.43 38.7575 124.047 37.8556L122.117 36.5995C121.473 37.5193 120.595 38.1286 119.327 38.1286C118.067 38.1286 117.163 37.5648 116.584 36.4533L124.159 33.3934L123.898 32.7645ZM116.175 34.6056C116.11 32.4736 117.871 31.3816 119.132 31.3816C120.121 31.3816 120.96 31.8643 121.24 32.5549L116.175 34.6056ZM110.018 39.9698H112.508V23.7198H110.018V39.9698ZM105.941 30.4798H105.857C105.298 29.833 104.231 29.248 102.88 29.248C100.044 29.248 97.4506 31.679 97.4506 34.7958C97.4506 37.8946 100.044 40.3061 102.88 40.3061C104.231 40.3061 105.298 39.7163 105.857 39.05H105.941V39.843C105.941 41.9571 104.784 43.093 102.918 43.093C101.397 43.093 100.453 42.0205 100.064 41.1186L97.8983 42.001C98.5225 43.4668 100.175 45.2705 102.918 45.2705C105.837 45.2705 108.301 43.5935 108.301 39.5131V29.5844H105.941V30.4798ZM103.093 38.1286C101.377 38.1286 99.9405 36.7263 99.9405 34.7958C99.9405 32.8474 101.377 31.4255 103.093 31.4255C104.784 31.4255 106.117 32.8474 106.117 34.7958C106.117 36.7263 104.784 38.1286 103.093 38.1286ZM135.555 23.7198H129.6V39.9698H132.083V33.8126H135.555C138.313 33.8126 141.017 31.8643 141.017 28.7654C141.017 25.6681 138.306 23.7198 135.555 23.7198ZM135.62 31.5523H132.083V25.9801H135.62C137.474 25.9801 138.532 27.4833 138.532 28.7654C138.532 30.0231 137.474 31.5523 135.62 31.5523ZM150.97 29.2171C149.176 29.2171 147.31 29.9906 146.543 31.705L148.747 32.6069C149.221 31.705 150.093 31.4125 151.015 31.4125C152.303 31.4125 153.61 32.1681 153.63 33.5023V33.6729C153.181 33.4194 152.219 33.044 151.035 33.044C148.662 33.044 146.243 34.3196 146.243 36.7003C146.243 38.8778 148.187 40.2801 150.373 40.2801C152.044 40.2801 152.966 39.544 153.545 38.6876H153.63V39.9438H156.028V33.7103C156.028 30.8291 153.825 29.2171 150.97 29.2171ZM150.671 38.1221C149.858 38.1221 148.727 37.7289 148.727 36.7458C148.727 35.488 150.138 35.0054 151.36 35.0054C152.453 35.0054 152.966 35.241 153.63 35.5514C153.435 37.0561 152.109 38.1221 150.671 38.1221ZM164.766 29.573L161.912 36.6174H161.827L158.876 29.573H156.198L160.632 39.4173L158.102 44.8951H160.697L167.529 29.573H164.766ZM142.382 39.9698H144.872V23.7198H142.382V39.9698Z" fill="white"/>
<path d="M13.8943 10.7702C13.5032 11.1699 13.2769 11.7923 13.2769 12.5983V41.3478C13.2769 42.1538 13.5032 42.7762 13.8943 43.1759L13.9909 43.2637L30.4915 27.1599V26.7797L13.9909 10.6759L13.8943 10.7702Z" fill="url(#paint0_linear_735_5555)"/>
<path d="M35.9853 32.5303L30.4912 27.1596V26.7794L35.992 21.4088L36.1151 21.4787L42.6295 25.0975C44.4886 26.1245 44.4886 27.8145 42.6295 28.848L36.1151 32.4604L35.9853 32.5303Z" fill="url(#paint1_linear_735_5555)"/>
<path d="M36.1151 32.4604L30.4912 26.9696L13.894 43.1757C14.5115 43.8094 15.5185 43.8858 16.6636 43.2521L36.1151 32.4604Z" fill="url(#paint2_linear_735_5555)"/>
<path d="M36.1151 21.4789L16.6636 10.6872C15.5185 10.06 14.5115 10.1364 13.894 10.7701L30.4912 26.9697L36.1151 21.4789Z" fill="url(#paint3_linear_735_5555)"/>
<defs>
<linearGradient id="paint0_linear_735_5555" x1="29.0264" y1="41.6472" x2="7.21556" y2="19.3078" gradientUnits="userSpaceOnUse">
<stop stop-color="#00A0FF"/>
<stop offset="0.0066" stop-color="#00A1FF"/>
<stop offset="0.2601" stop-color="#00BEFF"/>
<stop offset="0.5122" stop-color="#00D2FF"/>
<stop offset="0.7604" stop-color="#00DFFF"/>
<stop offset="1" stop-color="#00E3FF"/>
</linearGradient>
<linearGradient id="paint1_linear_735_5555" x1="45.0504" y1="26.9677" x2="12.8322" y2="26.9677" gradientUnits="userSpaceOnUse">
<stop stop-color="#FFE000"/>
<stop offset="0.4087" stop-color="#FFBD00"/>
<stop offset="0.7754" stop-color="#FFA500"/>
<stop offset="1" stop-color="#FF9C00"/>
</linearGradient>
<linearGradient id="paint2_linear_735_5555" x1="33.057" y1="23.9846" x2="3.47969" y2="-6.30936" gradientUnits="userSpaceOnUse">
<stop stop-color="#FF3A44"/>
<stop offset="1" stop-color="#C31162"/>
</linearGradient>
<linearGradient id="paint3_linear_735_5555" x1="9.71619" y1="52.7407" x2="22.9238" y2="39.2132" gradientUnits="userSpaceOnUse">
<stop stop-color="#32A071"/>
<stop offset="0.0685" stop-color="#2DA771"/>
<stop offset="0.4762" stop-color="#15CF74"/>
<stop offset="0.8009" stop-color="#06E775"/>
<stop offset="1" stop-color="#00F076"/>
</linearGradient>
</defs>
</svg>
