<svg width="24" height="24" viewBox="0 0 24 24" fill="none" xmlns="http://www.w3.org/2000/svg">
<path d="M16 12V11.999C15.9999 11.0737 15.679 10.1769 15.092 9.46158C14.5049 8.74625 13.688 8.2566 12.7804 8.07606C11.8728 7.89552 10.9306 8.03525 10.1145 8.47144C9.29837 8.90764 8.65872 9.61332 8.30454 10.4682C7.95036 11.3232 7.90356 12.2745 8.17212 13.16C8.44067 14.0456 9.00796 14.8106 9.77734 15.3248C10.5467 15.839 11.4706 16.0706 12.3915 15.98C13.3125 15.8894 14.1735 15.4823 14.828 14.828C15.1993 14.4691 15.4945 14.039 15.6958 13.5634C15.8972 13.0878 16.0006 12.5765 16 12.06L15.999 11.997V12H16ZM18.16 12C18.1552 13.4185 17.659 14.7915 16.7559 15.8853C15.8528 16.9791 14.5986 17.7262 13.2067 17.9994C11.8147 18.2726 10.3712 18.0551 9.12161 17.3838C7.87205 16.7125 6.8937 15.6289 6.35308 14.3175C5.81245 13.0061 5.74295 11.5479 6.15641 10.191C6.56986 8.83418 7.44072 7.6625 8.62078 6.87541C9.80084 6.08833 11.2172 5.73447 12.6288 5.87406C14.0403 6.01365 15.3599 6.63807 16.363 7.64105C16.9326 8.19376 17.3853 8.85534 17.6941 9.58647C18.003 10.3176 18.1618 11.1034 18.161 11.897L18.16 12.006V12.001V12ZM19.847 5.59405V5.59605C19.8471 5.9292 19.7317 6.25209 19.5204 6.50969C19.3091 6.76729 19.0151 6.94367 18.6883 7.00876C18.3616 7.07385 18.0224 7.02364 17.7285 6.86668C17.4347 6.70971 17.2043 6.45571 17.0767 6.14795C16.9492 5.84019 16.9322 5.49771 17.0289 5.17887C17.1255 4.86003 17.3297 4.58456 17.6066 4.3994C17.8836 4.21424 18.2162 4.13084 18.5478 4.16341C18.8793 4.19599 19.1893 4.34252 19.425 4.57805C19.681 4.82905 19.84 5.17905 19.84 5.56605V5.59505V5.59405H19.847ZM12.007 2.15405L10.812 2.14605C10.088 2.14071 9.53831 2.14071 9.16297 2.14605C8.78764 2.15138 8.28497 2.16705 7.65497 2.19305C7.06997 2.21305 6.51497 2.27105 5.97197 2.36305L6.04497 2.35305C5.61997 2.42305 5.24297 2.52305 4.88197 2.65605L4.92497 2.64205C4.41498 2.84706 3.9512 3.15212 3.56099 3.53924C3.17078 3.92636 2.86204 4.3877 2.65297 4.89605L2.64297 4.92305C2.51462 5.27436 2.41953 5.63695 2.35897 6.00605L2.35397 6.04305C2.26503 6.5685 2.21191 7.09939 2.19497 7.63205L2.19397 7.65305C2.16797 8.28371 2.15231 8.78638 2.14697 9.16105C2.14164 9.53571 2.14164 10.0854 2.14697 10.81C2.15231 11.5347 2.15497 11.933 2.15497 12.005C2.15497 12.077 2.15231 12.4754 2.14697 13.2C2.14164 13.9247 2.14164 14.4744 2.14697 14.849C2.15231 15.2237 2.16797 15.7264 2.19397 16.357C2.21397 16.942 2.27197 17.497 2.36397 18.04L2.35397 17.967C2.42397 18.392 2.52397 18.769 2.65697 19.13L2.64297 19.087C2.84799 19.597 3.15305 20.0608 3.54017 20.451C3.92729 20.8412 4.38862 21.15 4.89697 21.359L4.92397 21.369C5.24197 21.488 5.61897 21.588 6.00697 21.653L6.04397 21.658C6.51297 21.74 7.06797 21.798 7.63197 21.817L7.65297 21.818C8.28364 21.844 8.78631 21.8597 9.16097 21.865C9.53564 21.8704 10.0853 21.8704 10.81 21.865L11.998 21.841L13.193 21.849C13.917 21.8544 14.4666 21.8544 14.842 21.849C15.2173 21.8437 15.72 21.828 16.35 21.802C16.935 21.782 17.49 21.724 18.033 21.632L17.96 21.642C18.385 21.572 18.762 21.472 19.123 21.339L19.08 21.353C19.59 21.148 20.0537 20.843 20.444 20.4559C20.8342 20.0687 21.1429 19.6074 21.352 19.099L21.362 19.072C21.481 18.754 21.581 18.377 21.646 17.989L21.651 17.952C21.733 17.483 21.791 16.928 21.81 16.364L21.811 16.343C21.837 15.7124 21.8526 15.2097 21.858 14.835C21.8633 14.4604 21.8633 13.9107 21.858 13.186C21.8526 12.4614 21.85 12.063 21.85 11.991C21.85 11.919 21.8526 11.5207 21.858 10.796C21.8633 10.0714 21.8633 9.52171 21.858 9.14705C21.8526 8.77238 21.837 8.26971 21.811 7.63905C21.791 7.05405 21.733 6.49905 21.641 5.95605L21.651 6.02905C21.5875 5.63255 21.4861 5.24309 21.348 4.86605L21.362 4.90905C21.157 4.39905 20.8519 3.93527 20.4648 3.54506C20.0777 3.15485 19.6163 2.84611 19.108 2.63705L19.081 2.62705C18.7297 2.49869 18.3671 2.40361 17.998 2.34305L17.961 2.33805C17.4359 2.24915 16.9053 2.19603 16.373 2.17905L16.352 2.17805C15.7213 2.15205 15.2186 2.13638 14.844 2.13105C14.4693 2.12571 13.9196 2.12571 13.195 2.13105L12.007 2.15405ZM24 12C24 14.3854 23.9733 16.0364 23.92 16.953C23.9672 17.882 23.8188 18.8106 23.4843 19.6785C23.1497 20.5465 22.6366 21.3344 21.978 21.9914C21.3195 22.6483 20.5303 23.1596 19.6615 23.492C18.7927 23.8244 17.8638 23.9706 16.935 23.921L16.951 23.922C16.0343 23.9754 14.3833 24.002 11.998 24.002C9.61264 24.002 7.96164 23.9754 7.04497 23.922C6.11599 23.9693 5.18744 23.8209 4.3195 23.4863C3.45155 23.1518 2.66358 22.6386 2.00664 21.9801C1.34971 21.3216 0.838463 20.5323 0.506042 19.6636C0.173621 18.7948 0.0274396 17.8659 0.0769717 16.937L0.0759717 16.953C0.0226383 16.0364 -0.00402832 14.3854 -0.00402832 12C-0.00402832 9.61471 0.0226383 7.96371 0.0759717 7.04705C0.0287031 6.11806 0.177147 5.18952 0.511685 4.32157C0.846222 3.45363 1.35939 2.66566 2.01793 2.00872C2.67647 1.35178 3.46569 0.840539 4.33444 0.508117C5.2032 0.175696 6.13211 0.0295148 7.06097 0.0790469L7.04497 0.0780469C7.96164 0.0247135 9.61264 -0.00195312 11.998 -0.00195312C14.3833 -0.00195312 16.0343 0.0247135 16.951 0.0780469C17.88 0.0307783 18.8085 0.179222 19.6764 0.51376C20.5444 0.848297 21.3324 1.36146 21.9893 2.02C22.6462 2.67854 23.1575 3.46776 23.4899 4.33652C23.8223 5.20528 23.9685 6.13418 23.919 7.06305L23.92 7.04705C23.9733 7.96305 24 9.61405 24 12Z" fill="white"/>
</svg>
