<svg width="24" height="24" viewBox="0 0 24 24" fill="none" xmlns="http://www.w3.org/2000/svg">
<rect width="24" height="24" rx="12" fill="white"/>
<path d="M14.96 6.06689C13.7533 6.06689 12.6733 6.65356 12 7.55356C11.3267 6.65356 10.2467 6.06689 9.04 6.06689C6.99333 6.06689 5.33333 7.73356 5.33333 9.79356C5.33333 10.5869 5.46 11.3202 5.68 12.0002C6.73333 15.3336 9.98 17.3269 11.5867 17.8736C11.8133 17.9536 12.1867 17.9536 12.4133 17.8736C14.02 17.3269 17.2667 15.3336 18.32 12.0002C18.54 11.3202 18.6667 10.5869 18.6667 9.79356C18.6667 7.73356 17.0067 6.06689 14.96 6.06689Z" fill="#F81D1D"/>
</svg>
