<svg width="120" height="27" viewBox="0 0 120 27" fill="none" xmlns="http://www.w3.org/2000/svg">
<path d="M2.87 22.27C2.33 22.27 1.96 22.11 1.76 21.79C1.56 21.47 1.51 21.05 1.61 20.53L2.33 16.78L3.8 17.02H1.88C1.54 17.02 1.25 16.97 1.01 16.87C0.77 16.77 0.59 16.62 0.47 16.42C0.35 16.2 0.29 15.94 0.29 15.64C0.29 15.18 0.43 14.83 0.71 14.59C0.99 14.35 1.38 14.23 1.88 14.23H4.31L2.75 14.53L4.01 8.05L5.09 8.38H2.54C2.2 8.38 1.91 8.32 1.67 8.2C1.43 8.08 1.24 7.92 1.1 7.72C0.98 7.5 0.92 7.24 0.92 6.94C0.92 6.48 1.06 6.14 1.34 5.92C1.64 5.7 2.04 5.59 2.54 5.59H5.6L4.4 5.86L5.18 2.02C5.28 1.54 5.47 1.18 5.75 0.939999C6.05 0.699999 6.43 0.579999 6.89 0.579999C7.39 0.579999 7.75 0.739999 7.97 1.06C8.19 1.36 8.24 1.78 8.12 2.32L7.49 5.59H10.7L11.39 2.02C11.51 1.54 11.71 1.18 11.99 0.939999C12.27 0.699999 12.65 0.579999 13.13 0.579999C13.61 0.579999 13.96 0.739999 14.18 1.06C14.42 1.36 14.48 1.78 14.36 2.32L13.67 5.86L12.62 5.59H14.12C14.46 5.59 14.75 5.64 14.99 5.74C15.23 5.84 15.41 5.99 15.53 6.19C15.65 6.39 15.71 6.64 15.71 6.94C15.71 7.38 15.57 7.73 15.29 7.99C15.03 8.25 14.64 8.38 14.12 8.38H12.05L13.25 8.05L11.96 14.53L10.91 14.23H13.46C13.82 14.23 14.11 14.29 14.33 14.41C14.57 14.51 14.75 14.66 14.87 14.86C15.01 15.06 15.08 15.32 15.08 15.64C15.08 16.08 14.94 16.42 14.66 16.66C14.38 16.9 13.98 17.02 13.46 17.02H10.37L11.6 16.78L10.76 20.83C10.66 21.33 10.47 21.7 10.19 21.94C9.91 22.16 9.54 22.27 9.08 22.27C8.58 22.27 8.22 22.12 8 21.82C7.78 21.5 7.72 21.07 7.82 20.53L8.51 17.02H5.3L4.55 20.83C4.47 21.33 4.28 21.7 3.98 21.94C3.7 22.16 3.33 22.27 2.87 22.27ZM5.84 14.23H9.02L10.16 8.38H6.98L5.84 14.23ZM21.6983 22C21.0583 22 20.5683 21.83 20.2283 21.49C19.8883 21.15 19.7183 20.68 19.7183 20.08C19.7183 19.46 19.8883 18.99 20.2283 18.67C20.5683 18.35 21.0583 18.19 21.6983 18.19H24.7283V4.66H26.9183L22.5383 7.33C22.0783 7.61 21.6483 7.72 21.2483 7.66C20.8683 7.6 20.5383 7.43 20.2583 7.15C19.9783 6.87 19.7883 6.54 19.6883 6.16C19.6083 5.76 19.6483 5.37 19.8083 4.99C19.9683 4.59 20.2683 4.25 20.7083 3.97L24.8783 1.45C25.2983 1.19 25.7183 0.979999 26.1383 0.819999C26.5783 0.659999 27.0083 0.579999 27.4283 0.579999C28.0283 0.579999 28.4983 0.739999 28.8383 1.06C29.1983 1.36 29.3783 1.83 29.3783 2.47V18.19H32.1083C32.7283 18.19 33.2083 18.35 33.5483 18.67C33.8883 18.99 34.0583 19.46 34.0583 20.08C34.0583 20.7 33.8883 21.18 33.5483 21.52C33.2083 21.84 32.7283 22 32.1083 22H21.6983ZM39.5066 25.42C39.2066 25.78 38.8866 25.98 38.5466 26.02C38.2066 26.08 37.9166 26.02 37.6766 25.84C37.4366 25.66 37.2966 25.4 37.2566 25.06C37.2366 24.74 37.3866 24.39 37.7066 24.01C38.1466 23.45 38.4466 22.9 38.6066 22.36C38.7666 21.82 38.8466 21.34 38.8466 20.92L38.9966 22.15C38.1966 22.15 37.5466 21.92 37.0466 21.46C36.5466 21 36.2966 20.37 36.2966 19.57C36.2966 18.83 36.5266 18.23 36.9866 17.77C37.4466 17.29 38.0766 17.05 38.8766 17.05C39.6966 17.05 40.3366 17.33 40.7966 17.89C41.2566 18.43 41.4866 19.2 41.4866 20.2C41.4866 20.72 41.4366 21.25 41.3366 21.79C41.2366 22.33 41.0466 22.9 40.7666 23.5C40.4866 24.1 40.0666 24.74 39.5066 25.42ZM51.7695 22.33C49.2095 22.33 47.2495 21.38 45.8895 19.48C44.5495 17.56 43.8795 14.85 43.8795 11.35C43.8795 9.01 44.1795 7.04 44.7795 5.44C45.3995 3.82 46.2895 2.6 47.4495 1.78C48.6295 0.939999 50.0695 0.519999 51.7695 0.519999C54.3495 0.519999 56.3095 1.45 57.6495 3.31C58.9895 5.15 59.6595 7.83 59.6595 11.35C59.6595 13.69 59.3495 15.68 58.7295 17.32C58.1295 18.94 57.2495 20.18 56.0895 21.04C54.9295 21.9 53.4895 22.33 51.7695 22.33ZM51.7695 18.55C52.9295 18.55 53.7895 17.98 54.3495 16.84C54.9095 15.68 55.1895 13.85 55.1895 11.35C55.1895 8.85 54.9095 7.05 54.3495 5.95C53.7895 4.85 52.9295 4.3 51.7695 4.3C50.6095 4.3 49.7495 4.85 49.1895 5.95C48.6295 7.05 48.3495 8.85 48.3495 11.35C48.3495 13.85 48.6295 15.68 49.1895 16.84C49.7495 17.98 50.6095 18.55 51.7695 18.55ZM69.7578 22.33C67.1978 22.33 65.2378 21.38 63.8778 19.48C62.5378 17.56 61.8678 14.85 61.8678 11.35C61.8678 9.01 62.1678 7.04 62.7678 5.44C63.3878 3.82 64.2778 2.6 65.4378 1.78C66.6178 0.939999 68.0578 0.519999 69.7578 0.519999C72.3378 0.519999 74.2978 1.45 75.6378 3.31C76.9778 5.15 77.6478 7.83 77.6478 11.35C77.6478 13.69 77.3378 15.68 76.7178 17.32C76.1178 18.94 75.2378 20.18 74.0778 21.04C72.9178 21.9 71.4778 22.33 69.7578 22.33ZM69.7578 18.55C70.9178 18.55 71.7778 17.98 72.3378 16.84C72.8978 15.68 73.1778 13.85 73.1778 11.35C73.1778 8.85 72.8978 7.05 72.3378 5.95C71.7778 4.85 70.9178 4.3 69.7578 4.3C68.5978 4.3 67.7378 4.85 67.1778 5.95C66.6178 7.05 66.3378 8.85 66.3378 11.35C66.3378 13.85 66.6178 15.68 67.1778 16.84C67.7378 17.98 68.5978 18.55 69.7578 18.55ZM87.7461 22.33C85.1861 22.33 83.2261 21.38 81.8661 19.48C80.5261 17.56 79.8561 14.85 79.8561 11.35C79.8561 9.01 80.1561 7.04 80.7561 5.44C81.3761 3.82 82.2661 2.6 83.4261 1.78C84.6061 0.939999 86.0461 0.519999 87.7461 0.519999C90.3261 0.519999 92.2861 1.45 93.6261 3.31C94.9661 5.15 95.6361 7.83 95.6361 11.35C95.6361 13.69 95.3261 15.68 94.7061 17.32C94.1061 18.94 93.2261 20.18 92.0661 21.04C90.9061 21.9 89.4661 22.33 87.7461 22.33ZM87.7461 18.55C88.9061 18.55 89.7661 17.98 90.3261 16.84C90.8861 15.68 91.1661 13.85 91.1661 11.35C91.1661 8.85 90.8861 7.05 90.3261 5.95C89.7661 4.85 88.9061 4.3 87.7461 4.3C86.5861 4.3 85.7261 4.85 85.1661 5.95C84.6061 7.05 84.3261 8.85 84.3261 11.35C84.3261 13.85 84.6061 15.68 85.1661 16.84C85.7261 17.98 86.5861 18.55 87.7461 18.55ZM97.6144 22.544C97.561 22.6827 97.4864 22.784 97.3904 22.848C97.305 22.912 97.2037 22.944 97.0864 22.944C96.969 22.944 96.8624 22.912 96.7664 22.848C96.681 22.7947 96.617 22.7147 96.5744 22.608C96.5317 22.5013 96.5317 22.3787 96.5744 22.24L100.382 10.432C100.436 10.2933 100.51 10.192 100.606 10.128C100.702 10.064 100.804 10.032 100.91 10.032C101.028 10.032 101.129 10.064 101.214 10.128C101.31 10.1813 101.374 10.2613 101.406 10.368C101.449 10.4747 101.449 10.5973 101.406 10.736L97.6144 22.544ZM103.314 22.112C103.1 22.112 102.935 22.0533 102.818 21.936C102.711 21.808 102.658 21.6373 102.658 21.424V11.28C102.658 11.056 102.711 10.8907 102.818 10.784C102.935 10.6667 103.1 10.608 103.314 10.608C103.527 10.608 103.687 10.6667 103.794 10.784C103.911 10.8907 103.97 11.056 103.97 11.28V15.84H104.002L109.218 10.976C109.346 10.848 109.474 10.7573 109.602 10.704C109.73 10.64 109.868 10.608 110.018 10.608C110.22 10.608 110.364 10.656 110.45 10.752C110.546 10.848 110.583 10.9653 110.562 11.104C110.54 11.2427 110.466 11.376 110.338 11.504L104.882 16.56L104.898 15.856L110.594 21.12C110.754 21.2693 110.839 21.424 110.85 21.584C110.86 21.7333 110.812 21.8613 110.706 21.968C110.61 22.064 110.46 22.112 110.258 22.112C110.098 22.112 109.959 22.0747 109.842 22C109.735 21.936 109.612 21.8347 109.474 21.696L104.002 16.688H103.97V21.424C103.97 21.6373 103.916 21.808 103.81 21.936C103.703 22.0533 103.538 22.112 103.314 22.112ZM115.75 25.024C115.184 25.024 114.63 24.9547 114.086 24.816C113.552 24.688 113.067 24.48 112.63 24.192C112.502 24.1173 112.416 24.0267 112.374 23.92C112.342 23.8133 112.336 23.7067 112.358 23.6C112.379 23.504 112.427 23.4133 112.502 23.328C112.576 23.2533 112.662 23.2053 112.758 23.184C112.864 23.1627 112.971 23.1787 113.078 23.232C113.547 23.52 113.995 23.7173 114.422 23.824C114.848 23.9307 115.27 23.984 115.686 23.984C116.443 23.984 117.014 23.7813 117.398 23.376C117.792 22.9707 117.99 22.384 117.99 21.616V19.808H118.15C117.99 20.4267 117.648 20.9173 117.126 21.28C116.614 21.6427 116.011 21.824 115.318 21.824C114.603 21.824 113.984 21.664 113.462 21.344C112.939 21.0133 112.534 20.5547 112.246 19.968C111.968 19.3813 111.83 18.704 111.83 17.936C111.83 17.36 111.91 16.8373 112.07 16.368C112.23 15.888 112.459 15.4827 112.758 15.152C113.067 14.8107 113.435 14.5493 113.862 14.368C114.299 14.176 114.784 14.08 115.318 14.08C116.022 14.08 116.63 14.2613 117.142 14.624C117.654 14.976 117.984 15.456 118.134 16.064L117.974 16.256V14.768C117.974 14.5547 118.027 14.3947 118.134 14.288C118.251 14.1707 118.411 14.112 118.614 14.112C118.827 14.112 118.987 14.1707 119.094 14.288C119.2 14.3947 119.254 14.5547 119.254 14.768V21.44C119.254 22.624 118.955 23.5147 118.358 24.112C117.771 24.72 116.902 25.024 115.75 25.024ZM115.558 20.768C116.059 20.768 116.491 20.656 116.854 20.432C117.216 20.1973 117.494 19.8667 117.686 19.44C117.888 19.0133 117.99 18.512 117.99 17.936C117.99 17.072 117.771 16.3893 117.334 15.888C116.896 15.376 116.304 15.12 115.558 15.12C115.067 15.12 114.64 15.2373 114.278 15.472C113.915 15.696 113.632 16.0213 113.43 16.448C113.238 16.864 113.142 17.36 113.142 17.936C113.142 18.8 113.36 19.488 113.798 20C114.235 20.512 114.822 20.768 115.558 20.768Z" fill="#353535"/>
</svg>
