<svg width="24" height="24" viewBox="0 0 24 24" fill="none" xmlns="http://www.w3.org/2000/svg">
<rect width="24" height="24" rx="12" fill="white"/>
<path d="M11.5997 7.85309L12 8.38822L12.4004 7.85309C12.9838 7.07329 13.9182 6.56689 14.96 6.56689C16.7282 6.56689 18.1667 8.00736 18.1667 9.79356C18.1667 10.5325 18.0489 11.214 17.8443 11.8463L17.8432 11.8496C17.3524 13.4029 16.3444 14.6607 15.2483 15.6027C14.15 16.5466 12.9921 17.1485 12.2523 17.4002L12.2523 17.4002L12.2469 17.4021C12.2038 17.4173 12.1143 17.4336 12 17.4336C11.8858 17.4336 11.7963 17.4173 11.7531 17.4021L11.7531 17.402L11.7477 17.4002C11.0079 17.1485 9.85001 16.5466 8.75174 15.6027C7.65567 14.6607 6.64764 13.4029 6.15677 11.8496L6.15678 11.8496L6.15573 11.8463C5.95115 11.214 5.83334 10.5325 5.83334 9.79356C5.83334 8.00736 7.27182 6.56689 9.04001 6.56689C10.0818 6.56689 11.0163 7.07329 11.5997 7.85309Z" stroke="black"/>
</svg>
