<svg width="24" height="24" viewBox="0 0 24 24" fill="none" xmlns="http://www.w3.org/2000/svg">
<rect width="24" height="24" rx="12" fill="white"/>
<path d="M11.5996 7.85309L11.9999 8.38822L12.4003 7.85309C12.9837 7.07329 13.9182 6.56689 14.9599 6.56689C16.7281 6.56689 18.1666 8.00736 18.1666 9.79356C18.1666 10.5325 18.0488 11.214 17.8442 11.8463L17.8432 11.8496C17.3523 13.4029 16.3443 14.6607 15.2482 15.6027C14.1499 16.5466 12.992 17.1485 12.2522 17.4002L12.2522 17.4002L12.2468 17.4021C12.2037 17.4173 12.1142 17.4336 11.9999 17.4336C11.8857 17.4336 11.7962 17.4173 11.753 17.4021L11.753 17.402L11.7476 17.4002C11.0078 17.1485 9.84992 16.5466 8.75165 15.6027C7.65558 14.6607 6.64755 13.4029 6.15668 11.8496L6.15669 11.8496L6.15564 11.8463C5.95106 11.214 5.83325 10.5325 5.83325 9.79356C5.83325 8.00736 7.27173 6.56689 9.03992 6.56689C10.0817 6.56689 11.0162 7.07329 11.5996 7.85309Z" stroke="black"/>
</svg>
